<svg data-v-fde0c5aa="" xmlns="http://www.w3.org/2000/svg" viewBox="0 0 300 300" class="iconLeft"><!----><defs data-v-fde0c5aa=""><!----></defs><rect data-v-fde0c5aa="" fill="transparent" x="0" y="0" width="300px" height="300px" class="logo-background-square"></rect><defs data-v-fde0c5aa=""><!----></defs><g data-v-fde0c5aa="" id="ee3aafca-51b5-4297-8139-2edf64a4454b" fill="#000000" transform="matrix(1.6287670868781958,0,0,1.6287670868781958,79.06027523461071,138.81036952288773)"><path d="M5.07 1.27L5.07 1.27Q6.27 1.27 7.10 1.76L7.10 1.76L7.10 1.76Q7.92 2.25 8.50 3.16L8.50 3.16L8.50 3.16Q8.67 3.43 8.67 3.67L8.67 3.67L8.67 3.67Q8.67 3.98 8.39 4.17L8.39 4.17L8.39 4.17Q8.23 4.27 8.02 4.27L8.02 4.27L8.02 4.27Q7.81 4.27 7.63 4.16L7.63 4.16L7.63 4.16Q7.45 4.06 7.35 3.88L7.35 3.88L7.35 3.88Q6.97 3.25 6.41 2.92L6.41 2.92L6.41 2.92Q5.84 2.59 4.97 2.59L4.97 2.59L4.97 2.59Q3.91 2.59 3.25 3.00L3.25 3.00L3.25 3.00Q2.59 3.42 2.59 4.20L2.59 4.20L2.59 4.20Q2.59 4.93 3.18 5.42L3.18 5.42L3.18 5.42Q3.77 5.91 5.28 6.06L5.28 6.06L5.28 6.06Q6.96 6.23 7.88 7.08L7.88 7.08L7.88 7.08Q8.81 7.92 8.81 9.31L8.81 9.31L8.81 9.31Q8.81 10.32 8.26 11.04L8.26 11.04L8.26 11.04Q7.71 11.76 6.81 12.12L6.81 12.12L6.81 12.12Q5.91 12.47 4.87 12.47L4.87 12.47L4.87 12.47Q3.51 12.47 2.40 11.86L2.40 11.86L2.40 11.86Q1.29 11.24 0.87 10.25L0.87 10.25L0.87 10.25Q0.80 10.08 0.80 9.97L0.80 9.97L0.80 9.97Q0.80 9.76 0.95 9.60L0.95 9.60L0.95 9.60Q1.11 9.44 1.37 9.38L1.37 9.38L1.37 9.38Q1.41 9.37 1.51 9.37L1.51 9.37L1.51 9.37Q1.74 9.37 1.94 9.50L1.94 9.50L1.94 9.50Q2.14 9.63 2.24 9.86L2.24 9.86L2.24 9.86Q2.49 10.40 3.23 10.78L3.23 10.78L3.23 10.78Q3.98 11.16 4.87 11.16L4.87 11.16L4.87 11.16Q5.92 11.16 6.65 10.67L6.65 10.67L6.65 10.67Q7.38 10.19 7.38 9.35L7.38 9.35L7.38 9.35Q7.38 8.55 6.76 7.99L6.76 7.99L6.76 7.99Q6.15 7.42 4.89 7.29L4.89 7.29L4.89 7.29Q3.15 7.13 2.16 6.28L2.16 6.28L2.16 6.28Q1.16 5.43 1.16 4.16L1.16 4.16L1.16 4.16Q1.16 3.26 1.67 2.61L1.67 2.61L1.67 2.61Q2.18 1.96 3.07 1.62L3.07 1.62L3.07 1.62Q3.96 1.27 5.07 1.27L5.07 1.27ZM14.64 4.59L14.64 4.59Q15.39 4.59 15.81 4.82L15.81 4.82L15.81 4.82Q16.23 5.04 16.23 5.38L16.23 5.38L16.23 5.38Q16.23 5.47 16.21 5.52L16.21 5.52L16.21 5.52Q16.09 5.96 15.65 5.96L15.65 5.96L15.65 5.96Q15.58 5.96 15.44 5.94L15.44 5.94L15.44 5.94Q14.88 5.84 14.53 5.84L14.53 5.84L14.53 5.84Q13.52 5.84 12.91 6.30L12.91 6.30L12.91 6.30Q12.29 6.76 12.29 7.55L12.29 7.55L12.29 11.63L12.29 11.63Q12.29 11.97 12.12 12.15L12.12 12.15L12.12 12.15Q11.94 12.33 11.59 12.33L11.59 12.33L11.59 12.33Q11.26 12.33 11.07 12.16L11.07 12.16L11.07 12.16Q10.89 11.98 10.89 11.63L10.89 11.63L10.89 5.38L10.89 5.38Q10.89 5.04 11.07 4.86L11.07 4.86L11.07 4.86Q11.26 4.68 11.59 4.68L11.59 4.68L11.59 4.68Q12.29 4.68 12.29 5.38L12.29 5.38L12.29 5.64L12.29 5.64Q12.71 5.15 13.33 4.87L13.33 4.87L13.33 4.87Q13.94 4.59 14.64 4.59L14.64 4.59ZM17.84 5.39L17.84 5.39Q17.84 5.07 18.04 4.87L18.04 4.87L18.04 4.87Q18.24 4.68 18.55 4.68L18.55 4.68L18.55 4.68Q18.87 4.68 19.07 4.87L19.07 4.87L19.07 4.87Q19.26 5.07 19.26 5.39L19.26 5.39L19.26 11.62L19.26 11.62Q19.26 11.93 19.07 12.13L19.07 12.13L19.07 12.13Q18.87 12.33 18.55 12.33L18.55 12.33L18.55 12.33Q18.24 12.33 18.04 12.13L18.04 12.13L18.04 12.13Q17.84 11.93 17.84 11.62L17.84 11.62L17.84 5.39ZM18.55 1.58L18.55 1.58Q18.93 1.58 19.20 1.85L19.20 1.85L19.20 1.85Q19.47 2.13 19.47 2.51L19.47 2.51L19.47 2.51Q19.47 2.88 19.20 3.16L19.20 3.16L19.20 3.16Q18.93 3.43 18.55 3.43L18.55 3.43L18.55 3.43Q18.17 3.43 17.90 3.16L17.90 3.16L17.90 3.16Q17.63 2.88 17.63 2.51L17.63 2.51L17.63 2.51Q17.63 2.13 17.90 1.85L17.90 1.85L17.90 1.85Q18.17 1.58 18.55 1.58L18.55 1.58ZM25.73 4.61L25.73 4.61Q26.70 4.61 27.47 5.03L27.47 5.03L27.47 5.03Q28.24 5.45 28.67 6.25L28.67 6.25L28.67 6.25Q29.11 7.06 29.11 8.19L29.11 8.19L29.11 11.63L29.11 11.63Q29.11 11.94 28.90 12.14L28.90 12.14L28.90 12.14Q28.70 12.35 28.39 12.35L28.39 12.35L28.39 12.35Q28.08 12.35 27.88 12.14L27.88 12.14L27.88 12.14Q27.68 11.94 27.68 11.63L27.68 11.63L27.68 8.19L27.68 8.19Q27.68 7.06 27.07 6.47L27.07 6.47L27.07 6.47Q26.46 5.89 25.45 5.89L25.45 5.89L25.45 5.89Q24.86 5.89 24.38 6.13L24.38 6.13L24.38 6.13Q23.90 6.37 23.63 6.78L23.63 6.78L23.63 6.78Q23.35 7.18 23.35 7.69L23.35 7.69L23.35 11.63L23.35 11.63Q23.35 11.94 23.16 12.14L23.16 12.14L23.16 12.14Q22.96 12.35 22.64 12.35L22.64 12.35L22.64 12.35Q22.33 12.35 22.13 12.14L22.13 12.14L22.13 12.14Q21.92 11.94 21.92 11.63L21.92 11.63L21.92 5.39L21.92 5.39Q21.92 5.07 22.13 4.87L22.13 4.87L22.13 4.87Q22.33 4.68 22.64 4.68L22.64 4.68L22.64 4.68Q22.96 4.68 23.16 4.87L23.16 4.87L23.16 4.87Q23.35 5.07 23.35 5.39L23.35 5.39L23.35 5.54L23.35 5.54Q23.80 5.10 24.42 4.85L24.42 4.85L24.42 4.85Q25.03 4.61 25.73 4.61L25.73 4.61ZM31.61 5.39L31.61 5.39Q31.61 5.07 31.82 4.87L31.82 4.87L31.82 4.87Q32.02 4.68 32.33 4.68L32.33 4.68L32.33 4.68Q32.65 4.68 32.84 4.87L32.84 4.87L32.84 4.87Q33.04 5.07 33.04 5.39L33.04 5.39L33.04 11.62L33.04 11.62Q33.04 11.93 32.84 12.13L32.84 12.13L32.84 12.13Q32.65 12.33 32.33 12.33L32.33 12.33L32.33 12.33Q32.02 12.33 31.82 12.13L31.82 12.13L31.82 12.13Q31.61 11.93 31.61 11.62L31.61 11.62L31.61 5.39ZM32.33 1.58L32.33 1.58Q32.70 1.58 32.98 1.85L32.98 1.85L32.98 1.85Q33.25 2.13 33.25 2.51L33.25 2.51L33.25 2.51Q33.25 2.88 32.98 3.16L32.98 3.16L32.98 3.16Q32.70 3.43 32.33 3.43L32.33 3.43L32.33 3.43Q31.95 3.43 31.68 3.16L31.68 3.16L31.68 3.16Q31.40 2.88 31.40 2.51L31.40 2.51L31.40 2.51Q31.40 2.13 31.68 1.85L31.68 1.85L31.68 1.85Q31.95 1.58 32.33 1.58L32.33 1.58ZM36.41 1.40L36.41 1.40Q36.09 1.40 35.90 1.60L35.90 1.60L35.90 1.60Q35.70 1.79 35.70 2.11L35.70 2.11L35.70 8.50L35.70 8.50Q35.70 9.59 36.21 10.48L36.21 10.48L36.21 10.48Q36.72 11.37 37.60 11.88L37.60 11.88L37.60 11.88Q38.47 12.39 39.55 12.39L39.55 12.39L39.55 12.39Q40.63 12.39 41.52 11.88L41.52 11.88L41.52 11.88Q42.41 11.37 42.91 10.48L42.91 10.48L42.91 10.48Q43.41 9.59 43.41 8.50L43.41 8.50L43.41 8.50Q43.41 7.41 42.95 6.52L42.95 6.52L42.95 6.52Q42.48 5.63 41.66 5.12L41.66 5.12L41.66 5.12Q40.84 4.62 39.83 4.62L39.83 4.62L39.83 4.62Q39.02 4.62 38.32 4.96L38.32 4.96L38.32 4.96Q37.62 5.29 37.13 5.89L37.13 5.89L37.13 2.11L37.13 2.11Q37.13 1.79 36.93 1.60L36.93 1.60L36.93 1.60Q36.72 1.40 36.41 1.40L36.41 1.40ZM39.55 11.13L39.55 11.13Q38.85 11.13 38.28 10.79L38.28 10.79L38.28 10.79Q37.72 10.44 37.39 9.84L37.39 9.84L37.39 9.84Q37.07 9.24 37.07 8.50L37.07 8.50L37.07 8.50Q37.07 7.76 37.39 7.16L37.39 7.16L37.39 7.16Q37.72 6.57 38.28 6.22L38.28 6.22L38.28 6.22Q38.85 5.88 39.55 5.88L39.55 5.88L39.55 5.88Q40.25 5.88 40.82 6.22L40.82 6.22L40.82 6.22Q41.38 6.57 41.71 7.16L41.71 7.16L41.71 7.16Q42.04 7.76 42.04 8.50L42.04 8.50L42.04 8.50Q42.04 9.24 41.71 9.84L41.71 9.84L41.71 9.84Q41.38 10.44 40.82 10.79L40.82 10.79L40.82 10.79Q40.25 11.13 39.55 11.13L39.55 11.13ZM49.01 4.62L49.01 4.62Q50.09 4.62 50.97 5.13L50.97 5.13L50.97 5.13Q51.84 5.64 52.35 6.53L52.35 6.53L52.35 6.53Q52.86 7.42 52.86 8.51L52.86 8.51L52.86 11.63L52.86 11.63Q52.86 11.94 52.66 12.14L52.66 12.14L52.66 12.14Q52.46 12.35 52.15 12.35L52.15 12.35L52.15 12.35Q51.84 12.35 51.64 12.14L51.64 12.14L51.64 12.14Q51.44 11.94 51.44 11.63L51.44 11.63L51.44 11.12L51.44 11.12Q50.95 11.72 50.25 12.05L50.25 12.05L50.25 12.05Q49.55 12.39 48.73 12.39L48.73 12.39L48.73 12.39Q47.73 12.39 46.91 11.89L46.91 11.89L46.91 11.89Q46.09 11.38 45.62 10.49L45.62 10.49L45.62 10.49Q45.15 9.60 45.15 8.51L45.15 8.51L45.15 8.51Q45.15 7.42 45.65 6.53L45.65 6.53L45.65 6.53Q46.16 5.64 47.05 5.13L47.05 5.13L47.05 5.13Q47.94 4.62 49.01 4.62L49.01 4.62ZM49.01 11.13L49.01 11.13Q49.71 11.13 50.28 10.79L50.28 10.79L50.28 10.79Q50.85 10.44 51.17 9.85L51.17 9.85L51.17 9.85Q51.49 9.25 51.49 8.51L51.49 8.51L51.49 8.51Q51.49 7.77 51.17 7.17L51.17 7.17L51.17 7.17Q50.85 6.57 50.28 6.22L50.28 6.22L50.28 6.22Q49.71 5.88 49.01 5.88L49.01 5.88L49.01 5.88Q48.31 5.88 47.75 6.22L47.75 6.22L47.75 6.22Q47.18 6.57 46.85 7.17L46.85 7.17L46.85 7.17Q46.52 7.77 46.52 8.51L46.52 8.51L46.52 8.51Q46.52 9.25 46.85 9.85L46.85 9.85L46.85 9.85Q47.18 10.44 47.75 10.79L47.75 10.79L47.75 10.79Q48.31 11.13 49.01 11.13L49.01 11.13ZM57.68 4.62L57.68 4.62Q58.59 4.62 59.31 4.91L59.31 4.91L59.31 4.91Q60.03 5.21 60.45 5.73L60.45 5.73L60.45 5.73Q60.63 5.95 60.63 6.17L60.63 6.17L60.63 6.17Q60.63 6.41 60.40 6.61L60.40 6.61L60.40 6.61Q60.24 6.72 60.00 6.72L60.00 6.72L60.00 6.72Q59.64 6.72 59.35 6.45L59.35 6.45L59.35 6.45Q59.00 6.13 58.60 6.00L58.60 6.00L58.60 6.00Q58.21 5.87 57.65 5.87L57.65 5.87L57.65 5.87Q57.01 5.87 56.60 6.08L56.60 6.08L56.60 6.08Q56.18 6.30 56.18 6.69L56.18 6.69L56.18 6.69Q56.18 6.97 56.32 7.16L56.32 7.16L56.32 7.16Q56.46 7.35 56.85 7.51L56.85 7.51L56.85 7.51Q57.25 7.67 57.99 7.83L57.99 7.83L57.99 7.83Q59.51 8.13 60.15 8.68L60.15 8.68L60.15 8.68Q60.79 9.23 60.79 10.09L60.79 10.09L60.79 10.09Q60.79 10.74 60.44 11.26L60.44 11.26L60.44 11.26Q60.09 11.79 59.41 12.09L59.41 12.09L59.41 12.09Q58.73 12.39 57.78 12.39L57.78 12.39L57.78 12.39Q56.83 12.39 55.99 12.10L55.99 12.10L55.99 12.10Q55.15 11.80 54.67 11.33L54.67 11.33L54.67 11.33Q54.49 11.14 54.49 10.89L54.49 10.89L54.49 10.89Q54.49 10.56 54.77 10.35L54.77 10.35L54.77 10.35Q55.03 10.15 55.26 10.15L55.26 10.15L55.26 10.15Q55.54 10.15 55.79 10.40L55.79 10.40L55.79 10.40Q56.06 10.70 56.59 10.91L56.59 10.91L56.59 10.91Q57.12 11.13 57.72 11.13L57.72 11.13L57.72 11.13Q58.52 11.13 58.96 10.86L58.96 10.86L58.96 10.86Q59.40 10.60 59.40 10.15L59.40 10.15L59.40 10.15Q59.40 9.72 58.97 9.43L58.97 9.43L58.97 9.43Q58.53 9.14 57.50 8.95L57.50 8.95L57.50 8.95Q54.81 8.43 54.81 6.73L54.81 6.73L54.81 6.73Q54.81 6.05 55.22 5.57L55.22 5.57L55.22 5.57Q55.62 5.10 56.28 4.86L56.28 4.86L56.28 4.86Q56.94 4.62 57.68 4.62L57.68 4.62ZM70.91 1.40L70.91 1.40Q71.85 1.40 72.58 1.77L72.58 1.77L72.58 1.77Q73.30 2.14 73.72 2.81L73.72 2.81L73.72 2.81Q74.13 3.47 74.13 4.31L74.13 4.31L74.13 4.31Q74.13 5.00 73.76 5.54L73.76 5.54L73.76 5.54Q73.39 6.09 72.74 6.43L72.74 6.43L72.74 6.43Q73.70 6.65 74.24 7.32L74.24 7.32L74.24 7.32Q74.79 7.99 74.79 9.03L74.79 9.03L74.79 9.03Q74.79 9.98 74.33 10.74L74.33 10.74L74.33 10.74Q73.88 11.49 73.06 11.91L73.06 11.91L73.06 11.91Q72.24 12.33 71.20 12.33L71.20 12.33L67.56 12.33L67.56 12.33Q67.26 12.33 67.05 12.12L67.05 12.12L67.05 12.12Q66.84 11.91 66.84 11.61L66.84 11.61L66.84 2.13L66.84 2.13Q66.84 1.81 67.05 1.60L67.05 1.60L67.05 1.60Q67.26 1.40 67.56 1.40L67.56 1.40L70.91 1.40ZM70.91 5.89L70.91 5.89Q71.74 5.89 72.23 5.49L72.23 5.49L72.23 5.49Q72.73 5.08 72.73 4.31L72.73 4.31L72.73 4.31Q72.73 3.54 72.23 3.14L72.23 3.14L72.23 3.14Q71.74 2.74 70.91 2.74L70.91 2.74L68.29 2.74L68.29 5.89L70.91 5.89ZM71.20 10.99L71.20 10.99Q72.18 10.99 72.79 10.48L72.79 10.48L72.79 10.48Q73.39 9.97 73.39 9.03L73.39 9.03L73.39 9.03Q73.39 8.16 72.79 7.70L72.79 7.70L72.79 7.70Q72.20 7.24 71.20 7.24L71.20 7.24L68.29 7.24L68.29 10.99L71.20 10.99ZM76.96 5.39L76.96 5.39Q76.96 5.07 77.16 4.87L77.16 4.87L77.16 4.87Q77.36 4.68 77.67 4.68L77.67 4.68L77.67 4.68Q77.99 4.68 78.19 4.87L78.19 4.87L78.19 4.87Q78.39 5.07 78.39 5.39L78.39 5.39L78.39 11.62L78.39 11.62Q78.39 11.93 78.19 12.13L78.19 12.13L78.19 12.13Q77.99 12.33 77.67 12.33L77.67 12.33L77.67 12.33Q77.36 12.33 77.16 12.13L77.16 12.13L77.16 12.13Q76.96 11.93 76.96 11.62L76.96 11.62L76.96 5.39ZM77.67 1.58L77.67 1.58Q78.05 1.58 78.32 1.85L78.32 1.85L78.32 1.85Q78.60 2.13 78.60 2.51L78.60 2.51L78.60 2.51Q78.60 2.88 78.32 3.16L78.32 3.16L78.32 3.16Q78.05 3.43 77.67 3.43L77.67 3.43L77.67 3.43Q77.29 3.43 77.02 3.16L77.02 3.16L77.02 3.16Q76.75 2.88 76.75 2.51L76.75 2.51L76.75 2.51Q76.75 2.13 77.02 1.85L77.02 1.85L77.02 1.85Q77.29 1.58 77.67 1.58L77.67 1.58ZM83.73 4.62L83.73 4.62Q84.64 4.62 85.36 4.91L85.36 4.91L85.36 4.91Q86.09 5.21 86.51 5.73L86.51 5.73L86.51 5.73Q86.69 5.95 86.69 6.17L86.69 6.17L86.69 6.17Q86.69 6.41 86.45 6.61L86.45 6.61L86.45 6.61Q86.30 6.72 86.06 6.72L86.06 6.72L86.06 6.72Q85.69 6.72 85.40 6.45L85.40 6.45L85.40 6.45Q85.05 6.13 84.66 6.00L84.66 6.00L84.66 6.00Q84.27 5.87 83.71 5.87L83.71 5.87L83.71 5.87Q83.06 5.87 82.65 6.08L82.65 6.08L82.65 6.08Q82.24 6.30 82.24 6.69L82.24 6.69L82.24 6.69Q82.24 6.97 82.38 7.16L82.38 7.16L82.38 7.16Q82.52 7.35 82.91 7.51L82.91 7.51L82.91 7.51Q83.30 7.67 84.04 7.83L84.04 7.83L84.04 7.83Q85.57 8.13 86.20 8.68L86.20 8.68L86.20 8.68Q86.84 9.23 86.84 10.09L86.84 10.09L86.84 10.09Q86.84 10.74 86.49 11.26L86.49 11.26L86.49 11.26Q86.14 11.79 85.46 12.09L85.46 12.09L85.46 12.09Q84.78 12.39 83.83 12.39L83.83 12.39L83.83 12.39Q82.88 12.39 82.04 12.10L82.04 12.10L82.04 12.10Q81.20 11.80 80.72 11.33L80.72 11.33L80.72 11.33Q80.54 11.14 80.54 10.89L80.54 10.89L80.54 10.89Q80.54 10.56 80.82 10.35L80.82 10.35L80.82 10.35Q81.09 10.15 81.31 10.15L81.31 10.15L81.31 10.15Q81.59 10.15 81.84 10.40L81.84 10.40L81.84 10.40Q82.11 10.70 82.64 10.91L82.64 10.91L82.64 10.91Q83.17 11.13 83.78 11.13L83.78 11.13L83.78 11.13Q84.57 11.13 85.02 10.86L85.02 10.86L85.02 10.86Q85.46 10.60 85.46 10.15L85.46 10.15L85.46 10.15Q85.46 9.72 85.02 9.43L85.02 9.43L85.02 9.43Q84.59 9.14 83.55 8.95L83.55 8.95L83.55 8.95Q80.86 8.43 80.86 6.73L80.86 6.73L80.86 6.73Q80.86 6.05 81.27 5.57L81.27 5.57L81.27 5.57Q81.68 5.10 82.33 4.86L82.33 4.86L82.33 4.86Q82.99 4.62 83.73 4.62L83.73 4.62ZM96.78 4.68L96.78 4.68Q97.08 4.68 97.22 4.83L97.22 4.83L97.22 4.83Q97.37 4.98 97.37 5.25L97.37 5.25L97.37 5.25Q97.37 5.47 97.30 5.66L97.30 5.66L95.23 11.87L95.23 11.87Q95.16 12.07 94.98 12.20L94.98 12.20L94.98 12.20Q94.79 12.33 94.57 12.33L94.57 12.33L94.57 12.33Q94.33 12.33 94.14 12.20L94.14 12.20L94.14 12.20Q93.95 12.07 93.90 11.87L93.90 11.87L92.53 6.79L91.08 11.87L91.08 11.87Q91.01 12.07 90.83 12.20L90.83 12.20L90.83 12.20Q90.64 12.33 90.41 12.33L90.41 12.33L90.41 12.33Q90.19 12.33 90.00 12.20L90.00 12.20L90.00 12.20Q89.81 12.07 89.74 11.87L89.74 11.87L87.67 5.66L87.67 5.66Q87.61 5.47 87.61 5.26L87.61 5.26L87.61 5.26Q87.61 4.68 88.20 4.68L88.20 4.68L88.20 4.68Q88.47 4.68 88.64 4.83L88.64 4.83L88.64 4.83Q88.82 4.98 88.93 5.32L88.93 5.32L90.44 10.04L91.87 5.21L91.87 5.21Q91.94 4.97 92.11 4.82L92.11 4.82L92.11 4.82Q92.29 4.68 92.57 4.68L92.57 4.68L92.57 4.68Q92.83 4.68 93.01 4.82L93.01 4.82L93.01 4.82Q93.18 4.97 93.25 5.21L93.25 5.21L94.51 10.14L96.05 5.32L96.05 5.32Q96.25 4.68 96.78 4.68L96.78 4.68ZM102.31 4.62L102.31 4.62Q103.39 4.62 104.27 5.13L104.27 5.13L104.27 5.13Q105.14 5.64 105.65 6.53L105.65 6.53L105.65 6.53Q106.16 7.42 106.16 8.51L106.16 8.51L106.16 11.63L106.16 11.63Q106.16 11.94 105.96 12.14L105.96 12.14L105.96 12.14Q105.76 12.35 105.45 12.35L105.45 12.35L105.45 12.35Q105.14 12.35 104.94 12.14L104.94 12.14L104.94 12.14Q104.73 11.94 104.73 11.63L104.73 11.63L104.73 11.12L104.73 11.12Q104.24 11.72 103.54 12.05L103.54 12.05L103.54 12.05Q102.84 12.39 102.03 12.39L102.03 12.39L102.03 12.39Q101.02 12.39 100.21 11.89L100.21 11.89L100.21 11.89Q99.39 11.38 98.92 10.49L98.92 10.49L98.92 10.49Q98.45 9.60 98.45 8.51L98.45 8.51L98.45 8.51Q98.45 7.42 98.95 6.53L98.95 6.53L98.95 6.53Q99.46 5.64 100.35 5.13L100.35 5.13L100.35 5.13Q101.23 4.62 102.31 4.62L102.31 4.62ZM102.31 11.13L102.31 11.13Q103.01 11.13 103.58 10.79L103.58 10.79L103.58 10.79Q104.15 10.44 104.47 9.85L104.47 9.85L104.47 9.85Q104.79 9.25 104.79 8.51L104.79 8.51L104.79 8.51Q104.79 7.77 104.47 7.17L104.47 7.17L104.47 7.17Q104.15 6.57 103.58 6.22L103.58 6.22L103.58 6.22Q103.01 5.88 102.31 5.88L102.31 5.88L102.31 5.88Q101.61 5.88 101.05 6.22L101.05 6.22L101.05 6.22Q100.48 6.57 100.15 7.17L100.15 7.17L100.15 7.17Q99.82 7.77 99.82 8.51L99.82 8.51L99.82 8.51Q99.82 9.25 100.15 9.85L100.15 9.85L100.15 9.85Q100.48 10.44 101.05 10.79L101.05 10.79L101.05 10.79Q101.61 11.13 102.31 11.13L102.31 11.13ZM108.01 2.10L108.01 2.10Q108.01 1.79 108.21 1.60L108.21 1.60L108.21 1.60Q108.40 1.40 108.71 1.40L108.71 1.40L108.71 1.40Q109.02 1.40 109.21 1.60L109.21 1.60L109.21 1.60Q109.41 1.79 109.41 2.10L109.41 2.10L109.41 9.74L109.41 9.74Q109.41 10.26 109.61 10.60L109.61 10.60L109.61 10.60Q109.80 10.93 110.11 10.93L110.11 10.93L110.46 10.93L110.46 10.93Q110.74 10.93 110.92 11.13L110.92 11.13L110.92 11.13Q111.09 11.33 111.09 11.63L111.09 11.63L111.09 11.63Q111.09 11.94 110.82 12.14L110.82 12.14L110.82 12.14Q110.56 12.33 110.14 12.33L110.14 12.33L110.11 12.33L110.11 12.33Q109.51 12.33 109.03 12.00L109.03 12.00L109.03 12.00Q108.54 11.68 108.28 11.08L108.28 11.08L108.28 11.08Q108.01 10.49 108.01 9.74L108.01 9.74L108.01 2.10Z"></path></g><defs data-v-fde0c5aa=""><linearGradient data-v-fde0c5aa="" gradientTransform="rotate(25)" id="b92ab98b-420a-49d0-a27e-9c2155f74fb8" x1="0%" y1="0%" x2="100%" y2="0%"><stop data-v-fde0c5aa="" offset="0%" stop-color="#006678" stop-opacity="1"></stop><stop data-v-fde0c5aa="" offset="100%" stop-color="#4FA8FF" stop-opacity="1"></stop></linearGradient></defs><g data-v-fde0c5aa="" id="b11fff8f-fffd-40c1-9626-b480b3c35e02" stroke="none" fill="url(#b92ab98b-420a-49d0-a27e-9c2155f74fb8)" transform="matrix(0.855102778860303,0,0,0.855102778860303,40,136.31835553823515)"><path d="M16 32c8.837 0 16-7.163 16-16S24.837 0 16 0 0 7.163 0 16s7.163 16 16 16zM14.817 6.421h2v8.886h8.887v2H14.817V6.421zm-5.959.437h2v14.283h14.283v2H8.858V6.858z"></path></g><!----></svg>