<?xml version="1.0" encoding="UTF-8"?>
<svg xmlns="http://www.w3.org/2000/svg" xmlns:xlink="http://www.w3.org/1999/xlink" viewBox="0 0 240 240" width="240px" height="240px">
<g id="surface8852759">
<path style=" stroke:none;fill-rule:nonzero;fill:rgb(92.156863%,40.392157%,45.09804%);fill-opacity:1;" d="M 185 30 C 185 24.476562 180.523438 20 175 20 L 65 20 C 59.476562 20 55 24.476562 55 30 L 55 50 L 185 50 Z M 185 30 "/>
<path style=" stroke:none;fill-rule:nonzero;fill:rgb(70.19608%,8.235294%,13.725491%);fill-opacity:1;" d="M 55 208.601562 C 55 213.578125 60.460938 216.628906 64.699219 214.019531 L 120 179.988281 L 175.300781 214.019531 C 179.539062 216.628906 185 213.578125 185 208.601562 L 185 150 L 55 150 Z M 55 208.601562 "/>
<path style=" stroke:none;fill-rule:nonzero;fill:rgb(81.176472%,9.803922%,15.686275%);fill-opacity:1;" d="M 55 90 L 185 90 L 185 150 L 55 150 Z M 55 90 "/>
<path style=" stroke:none;fill-rule:nonzero;fill:rgb(85.09804%,25.490198%,30.980393%);fill-opacity:1;" d="M 55 50 L 185 50 L 185 90 L 55 90 Z M 55 50 "/>
</g>
</svg>
